<svg width="285" height="208" viewBox="0 0 285 208" fill="none" xmlns="http://www.w3.org/2000/svg">
<path fill-rule="evenodd" clip-rule="evenodd" d="M200.053 46.2222V133.178H180.408V50.5555L200.053 46.2222ZM143.607 141.267C149.141 141.267 153.568 145.889 153.568 151.378C153.568 157.156 149.141 161.489 143.607 161.489C138.073 161.489 133.646 156.867 133.646 151.378C133.922 145.889 138.35 141.267 143.607 141.267ZM143.607 70.7777C160.485 70.7777 174.044 84.9333 174.044 102.267C174.044 119.6 160.485 133.755 143.607 133.755C126.728 133.755 113.17 119.6 113.17 102.267C113.17 84.9333 127.005 70.7777 143.607 70.7777ZM143.607 112.667C149.141 112.667 153.568 108.044 153.568 102.556C153.568 96.7777 149.141 92.4444 143.607 92.4444C138.073 92.4444 133.646 97.0666 133.646 102.556C133.922 108.044 138.35 112.667 143.607 112.667ZM81.6262 112.667C84.9466 112.667 87.7136 109.778 87.7136 106.311C87.7136 102.844 84.9466 99.9555 81.6262 99.9555H66.6845V112.667H81.6262ZM66.6845 66.7333V79.4444H77.7524C81.0728 79.4444 83.8398 76.5555 83.8398 73.0888C83.8398 69.6222 81.0728 66.7333 77.7524 66.7333H66.6845ZM99.8884 87.2444C104.592 92.1555 107.636 98.7999 107.636 106.311C107.636 121.044 96.0146 133.178 81.6262 133.178H47.0388V46.2222H77.7524C92.1408 46.2222 103.762 58.3555 103.762 73.0888C103.762 78.2888 102.379 83.1999 99.8884 87.2444ZM237.131 92.4444H227.17V108.622C227.17 113.533 228.553 117 232.704 117C235.194 117 237.131 116.422 237.131 116.422V131.444C237.131 131.444 232.981 134.044 227.447 134.044H227.17C226.893 134.044 226.617 134.044 226.34 134.044H226.063H225.786C214.718 133.467 207.248 126.244 207.248 113.822V60.6666L226.893 56.3333V71.9333H236.854V92.4444H237.131Z" fill="#34D186"/>
</svg>
